<svg width="32" height="48" viewBox="0 0 32 48" fill="none" xmlns="http://www.w3.org/2000/svg">
<g clip-path="url(#clip0_201_3360)">
<path d="M16 0C7.16348 0 0 7.16347 0 16C0 24.8365 16 48 16 48C16 48 32 24.8365 32 16C32 7.16347 24.8366 0 16 0Z" fill="#00AEEF"/>
<path d="M22 12.8813H10V23.5481H22V12.8813Z" fill="white"/>
<path d="M8 12.348H24L16 7.01465L8 12.348Z" fill="white"/>
<path d="M17.2719 17.5688C17.0983 17.5688 16.949 17.5069 16.8246 17.3841C16.7002 17.2604 16.6381 17.1118 16.6381 16.9365C16.6381 16.7621 16.7002 16.6126 16.8246 16.4897C16.949 16.366 17.0983 16.3041 17.2719 16.3041C17.4456 16.3041 17.5939 16.366 17.7167 16.4897C17.8393 16.6126 17.9006 16.7621 17.9006 16.9365C17.9006 17.1118 17.8393 17.2604 17.7167 17.3841C17.5939 17.5069 17.4456 17.5688 17.2719 17.5688ZM14.7281 17.5688C14.5545 17.5688 14.4062 17.5069 14.2835 17.3841C14.1608 17.2604 14.0996 17.1118 14.0996 16.9365C14.0996 16.7621 14.1608 16.6126 14.2835 16.4897C14.4062 16.366 14.5545 16.3041 14.7281 16.3041C14.9052 16.3041 15.0553 16.366 15.178 16.4897C15.3006 16.6126 15.362 16.7621 15.362 16.9365C15.362 17.1118 15.2998 17.2604 15.1754 17.3841C15.0511 17.5069 14.9018 17.5688 14.7281 17.5688ZM13.6467 18.4348H13.9623C14.2131 19.5344 14.8924 20.0843 16 20.0843C17.1078 20.0843 17.787 19.5344 18.0378 18.4348H18.3533C18.2741 19.1479 18.0263 19.7062 17.6086 20.11C17.1908 20.5146 16.6541 20.7166 15.9975 20.7166C15.341 20.7166 14.805 20.5146 14.389 20.11C13.973 19.7062 13.7256 19.1479 13.6467 18.4348ZM16 21.7062C16.9649 21.7062 17.7882 21.366 18.4696 20.6847C19.1515 20.0044 19.4924 19.1813 19.4924 18.2174C19.4924 17.2534 19.1515 16.4305 18.4696 15.7475C17.7882 15.0654 16.9649 14.7235 16 14.7235C15.0348 14.7235 14.2114 15.0654 13.53 15.7475C12.8486 16.4305 12.5077 17.2534 12.5077 18.2174C12.5077 19.1813 12.8486 20.0044 13.53 20.6847C14.2114 21.366 15.0348 21.7062 16 21.7062ZM16 22.2148C14.8949 22.2148 13.952 21.8247 13.1711 21.0439C12.3902 20.263 12 19.3205 12 18.2148C12 17.1101 12.3902 16.1668 13.1711 15.3858C13.952 14.6057 14.8949 14.2148 16 14.2148C17.1051 14.2148 18.0477 14.6057 18.8289 15.3858C19.6093 16.1668 20.0001 17.1101 20.0001 18.2148C20.0001 19.3205 19.6093 20.263 18.8289 21.0439C18.0477 21.8247 17.1051 22.2148 16 22.2148Z" fill="#00AEEF"/>
</g>
<defs>
<clipPath id="clip0_201_3360">
<rect width="32" height="48" fill="white"/>
</clipPath>
</defs>
</svg>
